# xmcd
#
# Track frame offsets:
#	150
#	15045
#	31335
#	46220
#	67782
#	80050
#	93470
#	111367
#	127872
#	139657
#	152815
#	161220
#	170225
#
# Disc length: 2395
#
# Revision: 1
# Processed by: cddbd v1.5.1PL0 Copyright (c) Steve Scherf et al.
# Submitted via: CDex 1.51
# Normalized: r0:TDELIM( - ),TSWAP
#
DISCID=a109590d
DTITLE=Various Artist - Northgate Noise - Vol 3
DYEAR=1900
DGENRE=Country
TTITLE0=The Charlie Daniels Band - In America
TTITLE1=Charlie Robison - Barlight
TTITLE2=David Allan Coe - Jack Daniels If You Please
TTITLE3=Merle Haggard and Willie Nelson - Poncho and Lefty
TTITLE4=Johnny Cash - Folsom Prison Blues (Live)
TTITLE5=Mel McDaniels - Baby's Got Her Blue Jeans On
TTITLE6=Marty Robbins - Big Iron
TTITLE7=Stevie Ray Vaughan - Pride and Joy
TTITLE8=Johnny Paycheck - Take This Job and Shove It
TTITLE9=Moe Bandy - Bandy The Rodeo Clown
TTITLE10=Jerry Lee Lewis - Great Balls of Fire
TTITLE11=Roger Miller - Chug-A-Lug
TTITLE12=Willie Nelson - I Can Get Off On You (Live)
EXTD=
EXTT0=
EXTT1=
EXTT2=
EXTT3=
EXTT4=
EXTT5=
EXTT6=
EXTT7=
EXTT8=
EXTT9=
EXTT10=
EXTT11=
EXTT12=
PLAYORDER=
